<?xml version="1.0" encoding="UTF-8"?>
<!DOCTYPE svg PUBLIC "-//W3C//DTD SVG 1.1//EN" "http://www.w3.org/Graphics/SVG/1.1/DTD/svg11.dtd">
<svg xmlns="http://www.w3.org/2000/svg" version="1.1" width="256px" height="256px" style="shape-rendering:geometricPrecision; text-rendering:geometricPrecision; image-rendering:optimizeQuality; fill-rule:evenodd; clip-rule:evenodd" xmlns:xlink="http://www.w3.org/1999/xlink">
<g><path style="opacity:0.993" fill="#dcdcdc" d="M 122.5,-0.5 C 125.5,-0.5 128.5,-0.5 131.5,-0.5C 164.289,9.2024 197.289,18.5357 230.5,27.5C 230.993,58.2057 230.326,88.8723 228.5,119.5C 220.906,163.533 200.24,200.033 166.5,229C 154.291,238.595 141.624,247.428 128.5,255.5C 127.5,255.5 126.5,255.5 125.5,255.5C 94.5122,238.684 69.0122,215.684 49,186.5C 34.133,162.232 25.4664,135.899 23,107.5C 22.5,80.8354 22.3334,54.1687 22.5,27.5C 56.1011,18.7388 89.4345,9.40542 122.5,-0.5 Z"/></g>
<g><path style="opacity:1" fill="#231f20" d="M 123.5,2.5 C 130.511,3.83511 137.511,5.33511 144.5,7C 172.418,15.1255 200.418,22.9588 228.5,30.5C 228.667,52.1692 228.5,73.8359 228,95.5C 222.454,165.109 189.288,216.942 128.5,251C 127.167,251.667 125.833,251.667 124.5,251C 53.4263,210.374 20.4263,148.874 25.5,66.5C 25.5048,54.2598 25.8381,42.0931 26.5,30C 59.1533,21.4984 91.4866,12.3317 123.5,2.5 Z"/></g>
<g><path style="opacity:1" fill="#f1f1f1" d="M 126.5,239.5 C 126.795,241.735 126.461,243.735 125.5,245.5C 72.5446,215.341 41.3779,170.008 32,109.5C 31.1725,84.261 31.3392,59.0943 32.5,34C 63.76,25.2017 95.0933,16.7017 126.5,8.5C 127.128,12.1581 125.794,14.6581 122.5,16C 94.4925,23.6723 66.4925,31.339 38.5,39C 37.3402,60.4271 37.1735,81.9271 38,103.5C 44.8518,163.802 74.3518,209.135 126.5,239.5 Z"/></g>
<g><path style="opacity:1" fill="#f4f4f4" d="M 123.5,25.5 C 125.199,25.3398 126.866,25.5065 128.5,26C 133.662,29.7487 138.996,33.2487 144.5,36.5C 140.012,42.3099 137.012,48.8099 135.5,56C 135.559,57.4357 135.892,58.769 136.5,60C 149.978,62.6856 156.644,57.1856 156.5,43.5C 162.64,44.8747 168.306,47.208 173.5,50.5C 170.211,57.407 167.211,64.407 164.5,71.5C 150.991,66.4998 138.158,67.8332 126,75.5C 113.827,67.8513 100.994,66.518 87.5,71.5C 85.3196,64.1402 82.3196,57.1402 78.5,50.5C 79.7786,48.8539 81.4453,47.6872 83.5,47C 87.4468,45.5162 91.4468,44.3495 95.5,43.5C 95.3557,57.1856 102.022,62.6856 115.5,60C 116.422,56.5408 116.255,53.0408 115,49.5C 113.005,44.8398 110.505,40.5065 107.5,36.5C 112.899,32.8107 118.233,29.144 123.5,25.5 Z"/></g>
<g><path style="opacity:1" fill="#221e1f" d="M 124.5,32.5 C 128.573,34.0453 132.239,36.3787 135.5,39.5C 131.143,45.571 127.977,52.2377 126,59.5C 123.62,52.4079 120.453,45.7412 116.5,39.5C 119.239,37.1492 121.905,34.8159 124.5,32.5 Z"/></g>
<g><path style="opacity:1" fill="#767474" d="M 85.5,39.5 C 85.5,39.1667 85.5,38.8333 85.5,38.5C 85.6107,37.8826 85.944,37.3826 86.5,37C 89.4853,36.1324 92.4853,35.7991 95.5,36C 92.2561,37.4699 88.9228,38.6366 85.5,39.5 Z"/></g>
<g><path style="opacity:1" fill="#e7e7e7" d="M 85.5,38.5 C 85.5,38.8333 85.5,39.1667 85.5,39.5C 75.0806,42.8741 64.7472,46.5408 54.5,50.5C 53.5003,71.8229 53.167,93.1563 53.5,114.5C 53.8064,117.385 53.4731,120.052 52.5,122.5C 51.1684,116.672 50.0017,110.672 49,104.5C 48.5001,85.5029 48.3334,66.5029 48.5,47.5C 60.7944,44.2897 73.1278,41.2897 85.5,38.5 Z"/></g>
<g><path style="opacity:1" fill="#555454" d="M 164.5,38.5 C 164.917,37.8761 165.584,37.5427 166.5,37.5C 179.021,41.4524 191.687,44.7858 204.5,47.5C 204.809,68.5222 204.309,89.5222 203,110.5C 201.414,120.515 198.747,130.182 195,139.5C 196.418,131.924 197.751,124.257 199,116.5C 199.5,94.5025 199.667,72.5025 199.5,50.5C 187.873,46.5129 176.207,42.5129 164.5,38.5 Z"/></g>
<g><path style="opacity:1" fill="#1e1b1c" d="M 87.5,51.5 C 88.5,51.5 89.5,51.5 90.5,51.5C 91.1545,65.4832 89.4878,66.3165 85.5,54C 86.0556,52.9889 86.7222,52.1556 87.5,51.5 Z"/></g>
<g><path style="opacity:1" fill="#1f1c1d" d="M 161.5,50.5 C 163.394,51.0476 165.06,52.0476 166.5,53.5C 164.969,56.7593 163.636,60.0926 162.5,63.5C 161.508,59.2172 161.174,54.8839 161.5,50.5 Z"/></g>
<g><path style="opacity:1" fill="#fafafa" d="M 160.5,136.5 C 159.086,134.946 157.419,133.612 155.5,132.5C 155.167,132.833 154.833,133.167 154.5,133.5C 155.521,134.901 156.521,136.235 157.5,137.5C 158.521,143.13 158.687,148.796 158,154.5C 154.667,157.833 151.333,161.167 148,164.5C 141.959,160.717 135.625,157.717 129,155.5C 126.997,148.894 128.83,143.728 134.5,140C 137.377,139.044 140.044,137.711 142.5,136C 144.395,132.267 143.395,129.767 139.5,128.5C 135.422,130.019 131.255,131.352 127,132.5C 126.167,116.823 126.334,101.156 127.5,85.5C 138.01,76.6498 149.344,75.3165 161.5,81.5C 160.167,82.5 158.833,83.5 157.5,84.5C 163.428,87.5936 168.261,91.927 172,97.5C 173.145,102.083 173.811,106.749 174,111.5C 180.781,119.588 179.614,126.088 170.5,131C 168.286,133.925 165.953,136.759 163.5,139.5C 162.145,138.812 161.145,137.812 160.5,136.5 Z"/></g>
<g><path style="opacity:1" fill="#e6e6e6" d="M 90.5,80.5 C 99.3254,78.9183 106.992,81.085 113.5,87C 107.514,86.7601 101.514,86.7601 95.5,87C 84.0328,91.767 83.6994,91.1003 94.5,85C 92.8082,83.6927 91.4749,82.1927 90.5,80.5 Z"/></g>
<g><path style="opacity:0.369" fill="#848484" d="M 230.5,27.5 C 231.663,52.33 231.83,77.33 231,102.5C 230.685,108.384 229.851,114.051 228.5,119.5C 230.326,88.8723 230.993,58.2057 230.5,27.5 Z"/></g>
<g><path style="opacity:1" fill="#f2f2f2" d="M 86.5,94.5 C 91.6551,93.8895 96.3218,95.0562 100.5,98C 107.066,98.5791 113.4,100.079 119.5,102.5C 121.082,106.357 119.749,108.523 115.5,109C 112.5,109.667 109.5,109.667 106.5,109C 102.632,105.317 98.1323,102.817 93,101.5C 88.2623,102.571 85.0956,105.404 83.5,110C 81.8659,110.494 80.1992,110.66 78.5,110.5C 78.021,106.089 78.6876,101.922 80.5,98C 82.7274,97.059 84.7274,95.8923 86.5,94.5 Z"/></g>
<g><path style="opacity:1" fill="#252122" d="M 155.5,101.5 C 161.66,101.228 165.66,103.895 167.5,109.5C 165.712,109.215 164.045,109.548 162.5,110.5C 159.898,116.104 155.565,119.437 149.5,120.5C 150.485,122.098 150.651,123.765 150,125.5C 146.62,120.102 142.12,116.269 136.5,114C 134.981,112.649 133.648,111.149 132.5,109.5C 137.49,109.973 142.49,109.473 147.5,108C 150.355,105.969 153.022,103.803 155.5,101.5 Z"/></g>
<g><path style="opacity:1" fill="#2faa34" d="M 95.5,107.5 C 96.7894,109.248 98.2894,109.581 100,108.5C 106.051,114.11 104.884,115.61 96.5,113C 94.7011,111.3 94.3677,109.467 95.5,107.5 Z"/></g>
<g><path style="opacity:1" fill="#2ead34" d="M 155.5,107.5 C 158.017,109.077 158.017,110.91 155.5,113C 147.116,115.61 145.949,114.11 152,108.5C 153.579,109.8 154.745,109.466 155.5,107.5 Z"/></g>
<g><path style="opacity:1" fill="#b3b2b3" d="M 53.5,114.5 C 55.1683,122.006 56.3349,129.672 57,137.5C 55.0293,132.612 53.5293,127.612 52.5,122.5C 53.4731,120.052 53.8064,117.385 53.5,114.5 Z"/></g>
<g><path style="opacity:1" fill="#f4f4f4" d="M 76.5,124.5 C 78.8568,124.337 81.1902,124.503 83.5,125C 87.3647,127.763 91.3647,130.263 95.5,132.5C 92.8061,134.527 90.4728,136.861 88.5,139.5C 85.4746,134.308 81.3079,130.308 76,127.5C 75.5304,126.423 75.6971,125.423 76.5,124.5 Z"/></g>
<g><path style="opacity:1" fill="#737071" d="M 160.5,136.5 C 159.209,136.263 158.209,136.596 157.5,137.5C 156.521,136.235 155.521,134.901 154.5,133.5C 154.833,133.167 155.167,132.833 155.5,132.5C 157.419,133.612 159.086,134.946 160.5,136.5 Z"/></g>
<g><path style="opacity:1" fill="#e8e7e8" d="M 108.5,141.5 C 120.914,139.575 125.581,144.575 122.5,156.5C 116.482,156.596 110.482,156.763 104.5,157C 107.542,154.125 111.209,152.792 115.5,153C 111.619,151.81 107.619,151.143 103.5,151C 105.956,149.289 108.623,147.956 111.5,147C 111.167,146.667 110.833,146.333 110.5,146C 106.664,145.694 102.997,145.528 99.5,145.5C 102.474,143.841 105.474,142.508 108.5,141.5 Z"/></g>
<g><path style="opacity:1" fill="#f9f9f9" d="M 119.5,164.5 C 128.434,163.65 136.767,165.484 144.5,170C 146.249,173.729 147.916,177.563 149.5,181.5C 149.333,181.833 149.167,182.167 149,182.5C 147.649,180.981 146.149,179.648 144.5,178.5C 144.167,178.833 143.833,179.167 143.5,179.5C 145.5,181.833 147.5,184.167 149.5,186.5C 148.519,190.464 146.519,193.797 143.5,196.5C 142.956,193.286 141.956,190.286 140.5,187.5C 138.186,195.493 133.519,201.826 126.5,206.5C 119.439,201.946 114.939,195.613 113,187.5C 111.402,190.298 110.235,193.298 109.5,196.5C 106.997,193.498 104.997,190.165 103.5,186.5C 105.358,184.476 107.025,182.309 108.5,180C 107.258,179.689 106.258,180.189 105.5,181.5C 105.167,181.167 104.833,180.833 104.5,180.5C 105.775,177.627 106.608,174.627 107,171.5C 110.862,168.502 115.029,166.169 119.5,164.5 Z"/></g>
<g><path style="opacity:1" fill="#8f8d8e" d="M 85.5,189.5 C 84.8333,189.5 84.5,189.833 84.5,190.5C 81.1847,188.711 79.3514,186.045 79,182.5C 81.3722,184.703 83.5389,187.037 85.5,189.5 Z"/></g>
<g><path style="opacity:1" fill="#e7e6e7" d="M 85.5,189.5 C 97.483,201.819 111.15,211.819 126.5,219.5C 126.795,221.735 126.461,223.735 125.5,225.5C 109.699,216.368 96.0326,204.702 84.5,190.5C 84.5,189.833 84.8333,189.5 85.5,189.5 Z"/></g>
<g><path style="opacity:1" fill="#595959" d="M 125.5,225.5 C 126.461,223.735 126.795,221.735 126.5,219.5C 141.731,212.37 155.064,202.537 166.5,190C 169.295,188.207 171.795,186.04 174,183.5C 161.594,201.396 145.761,215.729 126.5,226.5C 125.893,226.376 125.56,226.043 125.5,225.5 Z"/></g>
<g><path style="opacity:1" fill="#726f70" d="M 126.5,239.5 C 127.797,241.693 127.797,244.027 126.5,246.5C 125.893,246.376 125.56,246.043 125.5,245.5C 126.461,243.735 126.795,241.735 126.5,239.5 Z"/></g>
</svg>
